<?xml version="1.0" encoding="utf-8"?>
<svg viewBox="178.261 260.365 128 129" xmlns="http://www.w3.org/2000/svg">
  <path d="M0 27L14 29L28 47L43 43L57 25L71 32L85 25L100 38L114 41L128 37L128 0L114 0L100 0L85 0L71 0L57 0L43 0L28 0L14 0L0 0Z" fill="#00cc8e" transform="matrix(1, 0, 0, 1, 178.261096, 260.365421)"/>
  <path d="M0 34L14 38L28 56L43 57L57 33L71 41L85 38L100 52L114 56L128 51L128 35L114 39L100 36L85 23L71 30L57 23L43 41L28 45L14 27L0 25Z" fill="#00bd8b" transform="matrix(1, 0, 0, 1, 178.261096, 260.365421)"/>
  <path d="M0 46L14 53L28 65L43 70L57 46L71 51L85 52L100 61L114 71L128 64L128 49L114 54L100 50L85 36L71 39L57 31L43 55L28 54L14 36L0 32Z" fill="#00ae87" transform="matrix(1, 0, 0, 1, 178.261096, 260.365421)"/>
  <path d="M0 56L14 74L28 79L43 85L57 69L71 66L85 74L100 80L114 83L128 73L128 62L114 69L100 59L85 50L71 49L57 44L43 68L28 63L14 51L0 44Z" fill="#00a081" transform="matrix(1, 0, 0, 1, 178.261096, 260.365421)"/>
  <path d="M0 70L14 96L28 105L43 106L57 80L71 88L85 97L100 98L114 109L128 89L128 71L114 81L100 78L85 72L71 64L57 67L43 83L28 77L14 72L0 54Z" fill="#00917b" transform="matrix(1, 0, 0, 1, 178.261096, 260.365421)"/>
  <path d="M0 129L14 129L28 129L43 129L57 129L71 129L85 129L100 129L114 129L128 129L128 87L114 107L100 96L85 95L71 86L57 78L43 104L28 103L14 94L0 68Z" fill="#038373" transform="matrix(1, 0, 0, 1, 178.261096, 260.365421)"/>
  <path d="M 241.808 322.999 Q 241.752 322.835 241.692 322.675 Q 241.632 322.515 241.576 322.347 L 240.408 322.347 Q 240.352 322.515 240.294 322.677 Q 240.236 322.839 240.18 322.999 L 239.656 322.999 Q 239.812 322.555 239.952 322.179 Q 240.092 321.803 240.226 321.467 Q 240.36 321.131 240.492 320.827 Q 240.624 320.523 240.764 320.227 L 241.24 320.227 Q 241.38 320.523 241.512 320.827 Q 241.644 321.131 241.778 321.467 Q 241.912 321.803 242.054 322.179 Q 242.196 322.555 242.352 322.999 Z M 240.992 320.763 Q 240.9 320.975 240.782 321.279 Q 240.664 321.583 240.536 321.939 L 241.448 321.939 Q 241.32 321.583 241.2 321.275 Q 241.08 320.967 240.992 320.763 Z" transform="matrix(30.313848, 0, 0, 18.406836, -7061.64502, -5593.730469)" style="fill: rgb(245, 245, 245); white-space: pre;"/>
</svg>